<?xml version="1.0" encoding="utf-8"?>
<!-- Generator: Adobe Illustrator 19.2.1, SVG Export Plug-In . SVG Version: 6.00 Build 0)  -->
<svg version="1.1" id="layer" xmlns="http://www.w3.org/2000/svg" xmlns:xlink="http://www.w3.org/1999/xlink" x="0px" y="0px"
	 viewBox="0 0 652 652" style="enable-background:new 0 0 652 652;" xml:space="preserve">
<style type="text/css">
	.st0{fill:#FF9D28;}
	.st1{fill:#68C5ED;}
	.st2{fill:#044D80;}
	.st3{fill:#E54747;}
</style>
<path class="st0" d="M20.4,303l55,0l33.4,0v-33.1L20.4,303z"/>
<path class="st1" d="M108.8,269.9v117l41.8-132.6L108.8,269.9z"/>
<path class="st2" d="M108.8,303l-33.4,0l33.4,83.8V303z"/>
<path class="st3" d="M20.4,303L84,324.5L75.4,303L20.4,303z"/>
<g>
	<path class="st2" d="M223,356c-0.5,0.5-1.3,1.1-2.4,1.8c-1.1,0.7-2.6,1.5-4.4,2.2c-1.8,0.7-4,1.4-6.7,1.9c-2.6,0.5-5.6,0.8-9,0.8
		c-6.5,0-12.2-1.1-17-3.1c-4.8-2.1-8.7-5-11.8-8.8c-3.1-3.8-5.4-8.2-6.8-13.3c-1.5-5.1-2.2-10.8-2.2-16.9c0-6.1,0.8-11.8,2.4-17
		c1.6-5.2,3.9-9.7,7.1-13.5c3.1-3.8,7.1-6.8,11.8-8.9c4.7-2.1,10.3-3.2,16.7-3.2c3.1,0,6,0.3,8.5,0.8c2.5,0.6,4.8,1.2,6.7,2
		c1.9,0.8,3.5,1.6,4.7,2.4c1.3,0.8,2.2,1.6,2.8,2.1c0.7,0.6,1.4,1.4,1.9,2.3c0.5,0.9,0.8,1.9,0.8,2.9c0,1.6-0.6,3.2-1.8,4.8
		c-1.2,1.6-2.5,3.1-4,4.5c-1-1-2.1-2-3.3-3c-1.2-1-2.6-1.9-4.1-2.7c-1.5-0.8-3.2-1.4-5.1-1.9c-1.9-0.5-4-0.8-6.4-0.8
		c-4.1,0-7.6,0.8-10.4,2.5c-2.8,1.7-5,3.8-6.7,6.5c-1.7,2.7-2.9,5.7-3.6,9.1c-0.7,3.4-1.1,6.9-1.1,10.5c0,3.8,0.4,7.4,1.1,10.9
		c0.7,3.5,2,6.5,3.8,9.2c1.8,2.7,4.1,4.8,7,6.4c2.9,1.6,6.4,2.4,10.7,2.4c2.3,0,4.3-0.3,6.2-0.8c1.9-0.6,3.6-1.3,5-2.1
		c1.5-0.8,2.7-1.7,3.8-2.5c1.1-0.9,2-1.7,2.7-2.3c0.5,0.6,1,1.3,1.7,2.1c0.7,0.8,1.3,1.7,1.8,2.5c0.6,0.9,1,1.8,1.5,2.7
		c0.4,0.9,0.6,1.7,0.6,2.4c0,1.1-0.2,1.9-0.6,2.7C224.5,354.3,223.8,355.1,223,356L223,356z M285.4,346.7c0,6.4,0.9,11.1,2.8,14
		c-1.5,0.6-2.8,1-4.1,1.2c-1.3,0.2-2.6,0.4-4,0.4c-2.9,0-5.1-0.6-6.6-1.7c-1.5-1.1-2.5-2.8-2.9-4.9c-1.8,1.9-4.1,3.5-7.1,4.8
		c-2.9,1.3-6.5,1.9-10.7,1.9c-2.2,0-4.4-0.3-6.6-0.9c-2.2-0.6-4.2-1.6-6-3c-1.8-1.4-3.2-3.2-4.4-5.5c-1.1-2.3-1.7-5.1-1.7-8.4
		c0-4.1,1-7.5,3-10.1c2-2.6,4.5-4.6,7.5-6.1c3-1.5,6.3-2.5,9.7-3.1c3.5-0.6,6.7-0.9,9.6-1.1c1-0.1,1.9-0.1,2.9-0.1h2.6v-2.2
		c0-3.1-0.8-5.3-2.5-6.7c-1.7-1.3-4.4-2-8.1-2c-3.5,0-6.6,0.6-9.3,1.7c-2.7,1.1-5.4,2.4-8,3.9c-1.1-1.4-2.1-2.9-2.7-4.6
		c-0.7-1.7-1-2.9-1-3.7c0-1.1,0.6-2.2,1.9-3.3c1.3-1.1,3-2,5.2-2.9c2.2-0.9,4.7-1.5,7.6-2.1c2.8-0.5,5.8-0.8,9-0.8
		c4.4,0,8.1,0.4,11.1,1.3c3,0.9,5.5,2.3,7.4,4.1c1.9,1.9,3.3,4.2,4.1,7c0.8,2.8,1.2,6.1,1.2,9.8L285.4,346.7L285.4,346.7z
		 M269.8,332.6h-1.7c-0.6,0-1.1,0-1.7,0.1c-2,0.2-4,0.4-6,0.7c-2,0.3-3.8,0.9-5.3,1.7c-1.5,0.8-2.8,1.9-3.8,3.2c-1,1.3-1.5,3-1.5,5
		c0,2.3,0.6,4.2,1.9,5.8c1.3,1.6,3.5,2.4,6.6,2.4c1.5,0,3-0.2,4.4-0.6c1.4-0.4,2.6-0.9,3.7-1.6c1.1-0.7,1.9-1.4,2.5-2.1
		c0.6-0.8,0.9-1.5,0.9-2.1L269.8,332.6L269.8,332.6z M315.7,308.6c1.3-1.5,3.3-3.1,6.1-4.7c2.8-1.6,6.2-2.4,10.4-2.4
		c3,0,5.9,0.5,8.6,1.5c2.7,1,5.1,2.7,7.2,4.9c2.1,2.3,3.8,5.3,5,9c1.3,3.7,1.9,8.3,1.9,13.8c0,6.3-0.7,11.6-2.2,15.7
		c-1.5,4.1-3.3,7.4-5.6,9.7c-2.3,2.4-4.9,4.1-7.7,5.1c-2.8,1-5.7,1.5-8.5,1.5c-2.3,0-4.4-0.3-6.1-0.8c-1.7-0.5-3.2-1.1-4.4-1.8
		c-1.2-0.6-2.1-1.3-2.8-1.9c-0.6-0.6-1.1-1.1-1.2-1.3v30h-16.6v-83.6c0.4-0.1,0.9-0.2,1.5-0.2c0.5-0.1,1.1-0.1,1.7-0.2
		c0.7,0,1.4-0.1,2.3-0.1c2.7,0,5,0.4,6.9,1.3C314,305,315.2,306.5,315.7,308.6L315.7,308.6z M337.7,331.1c0-2.4-0.2-4.7-0.6-6.8
		c-0.4-2.1-1.1-3.9-2-5.5c-0.9-1.5-2.2-2.7-3.8-3.6c-1.6-0.9-3.5-1.3-5.8-1.3c-3.4,0-5.8,0.7-7.1,1.9c-1.3,1.3-2,2.7-2,4.3V346
		c0.6,0.7,1.8,1.4,3.5,2.3c1.7,0.9,3.6,1.3,5.8,1.3c4.1,0,7.1-1.6,9.1-4.9C336.7,341.5,337.7,337,337.7,331.1z M367.7,352.1
		c-0.6-1.6-0.9-3.3-1.1-5.1c-0.2-1.8-0.2-3.6-0.2-5.4v-56.5c0.6-0.1,1.2-0.2,1.8-0.2c0.6-0.1,1.2-0.1,1.8-0.2c0.6,0,1.3-0.1,1.9-0.1
		c1.3,0,2.6,0.1,3.9,0.4c1.3,0.2,2.5,0.7,3.5,1.5c1.1,0.7,1.9,1.7,2.6,3c0.6,1.3,1,2.9,1,4.9v8.7H400v12.3H383v26
		c0,5.7,2.3,8.5,6.9,8.5c1.1,0,2.2-0.2,3.2-0.5c1-0.4,1.9-0.8,2.7-1.2c0.8-0.4,1.5-0.9,2.1-1.4c0.6-0.5,1-0.9,1.3-1.1
		c1.2,1.8,2.2,3.3,2.8,4.6c0.6,1.3,1,2.5,1,3.7c0,1.1-0.4,2.1-1.3,3.1s-2.1,2-3.6,2.8c-1.5,0.9-3.4,1.6-5.6,2.1
		c-2.2,0.5-4.6,0.8-7.2,0.8c-5,0-9-1-11.8-2.9C370.9,357.8,368.9,355.3,367.7,352.1L367.7,352.1z M442,350.5c2,0,3.8-0.2,5.4-0.7
		c1.5-0.4,2.9-1,4.2-1.6c1.2-0.6,2.3-1.4,3.2-2.1c0.9-0.8,1.7-1.5,2.4-2.1c1,1.2,2,2.8,3.1,4.7c1.1,1.9,1.6,3.5,1.6,4.7
		c0,1.8-1,3.4-3,4.9c-1.7,1.3-4.1,2.4-7.3,3.4c-3.1,0.9-6.8,1.4-11,1.4c-3.8,0-7.6-0.5-11.3-1.5c-3.7-1-7-2.7-9.9-5.1
		c-2.9-2.4-5.2-5.7-7-9.8c-1.8-4.1-2.7-9.3-2.7-15.5c0-5.1,0.8-9.5,2.4-13.2c1.6-3.7,3.7-6.8,6.3-9.2c2.6-2.4,5.6-4.2,9-5.4
		c3.3-1.1,6.7-1.7,10.2-1.7c4.5,0,8.4,0.7,11.6,2.1c3.2,1.4,5.7,3.3,7.7,5.7c2,2.4,3.4,5.1,4.3,8.2c0.9,3.1,1.3,6.3,1.3,9.7v1.7
		c0,0.7,0,1.3-0.1,2.1c0,0.7-0.1,1.4-0.1,2.1c0,0.7-0.1,1.2-0.2,1.6h-35.9c0.3,4.5,1.7,8.2,4.2,11.2
		C432.8,349,436.7,350.5,442,350.5L442,350.5z M447.6,325.8c0-3.9-0.8-7.1-2.3-9.5c-1.5-2.4-4.2-3.7-8.1-3.7c-3.4,0-6,1.2-8,3.5
		c-2,2.3-3,5.5-3,9.7L447.6,325.8L447.6,325.8z M491.4,308.9c0.5-0.7,1.1-1.5,1.9-2.4c0.8-0.9,1.8-1.7,3-2.4
		c1.2-0.7,2.5-1.3,3.9-1.8c1.4-0.5,2.9-0.7,4.6-0.7c1,0,2,0.1,3.1,0.2c1.1,0.2,2.1,0.5,3,0.9c0.9,0.4,1.7,1,2.3,1.8
		c0.6,0.8,0.9,1.7,0.9,2.8c0,1.8-0.4,3.8-1.3,6.1c-0.9,2.3-1.8,4.3-2.7,5.9c-1.4-1.1-2.8-2-4.1-2.6c-1.4-0.6-3-0.9-4.9-0.9
		c-2.5,0-4.6,0.7-6.3,2.2c-1.7,1.5-2.6,3.2-2.6,5.3v39.4h-16.6v-59.5c0.4-0.1,0.9-0.2,1.5-0.2c0.5-0.1,1.1-0.1,1.7-0.2
		c0.6,0,1.4-0.1,2.3-0.1c2.6,0,4.9,0.5,6.8,1.5C489.7,305.3,490.9,306.8,491.4,308.9L491.4,308.9z M538.5,308.9
		c0.5-0.7,1.1-1.5,1.9-2.4c0.8-0.9,1.8-1.7,3-2.4c1.2-0.7,2.5-1.3,3.9-1.8c1.4-0.5,2.9-0.7,4.6-0.7c1,0,2,0.1,3.1,0.2
		c1.1,0.2,2.1,0.5,3,0.9c0.9,0.4,1.7,1,2.3,1.8c0.6,0.8,0.9,1.7,0.9,2.8c0,1.8-0.4,3.8-1.3,6.1c-0.9,2.3-1.8,4.3-2.7,5.9
		c-1.4-1.1-2.8-2-4.1-2.6c-1.4-0.6-3-0.9-4.9-0.9c-2.5,0-4.6,0.7-6.3,2.2c-1.7,1.5-2.6,3.2-2.6,5.3v39.4h-16.6v-59.5
		c0.4-0.1,0.9-0.2,1.5-0.2c0.5-0.1,1.1-0.1,1.7-0.2c0.6,0,1.4-0.1,2.3-0.1c2.6,0,4.9,0.5,6.8,1.5C536.8,305.3,538,306.8,538.5,308.9
		L538.5,308.9z M617.6,346.7c0,6.4,0.9,11.1,2.8,14c-1.5,0.6-2.8,1-4.1,1.2c-1.3,0.2-2.6,0.4-4,0.4c-2.9,0-5.1-0.6-6.6-1.7
		c-1.5-1.1-2.5-2.8-2.9-4.9c-1.8,1.9-4.1,3.5-7.1,4.8c-2.9,1.3-6.5,1.9-10.7,1.9c-2.2,0-4.4-0.3-6.6-0.9c-2.2-0.6-4.2-1.6-6-3
		c-1.8-1.4-3.2-3.2-4.4-5.5c-1.1-2.3-1.7-5.1-1.7-8.4c0-4.1,1-7.5,3-10.1c2-2.6,4.5-4.6,7.5-6.1c3-1.5,6.3-2.5,9.7-3.1
		c3.5-0.6,6.7-0.9,9.6-1.1c1-0.1,1.9-0.1,2.9-0.1h2.6v-2.2c0-3.1-0.8-5.3-2.5-6.7c-1.7-1.3-4.4-2-8.1-2c-3.5,0-6.6,0.6-9.3,1.7
		c-2.7,1.1-5.4,2.4-8,3.9c-1.1-1.4-2.1-2.9-2.7-4.6c-0.7-1.7-1-2.9-1-3.7c0-1.1,0.6-2.2,1.9-3.3c1.3-1.1,3-2,5.2-2.9
		c2.2-0.9,4.7-1.5,7.6-2.1c2.8-0.5,5.8-0.8,9-0.8c4.4,0,8.1,0.4,11.1,1.3c3,0.9,5.5,2.3,7.4,4.1c1.9,1.9,3.3,4.2,4.1,7
		c0.8,2.8,1.2,6.1,1.2,9.8L617.6,346.7L617.6,346.7z M602,332.6h-1.7c-0.6,0-1.1,0-1.7,0.1c-2,0.2-4,0.4-6,0.7
		c-2,0.3-3.8,0.9-5.3,1.7c-1.5,0.8-2.8,1.9-3.8,3.2c-1,1.3-1.5,3-1.5,5c0,2.3,0.6,4.2,1.9,5.8c1.3,1.6,3.5,2.4,6.6,2.4
		c1.5,0,3-0.2,4.4-0.6c1.4-0.4,2.6-0.9,3.7-1.6c1.1-0.7,1.9-1.4,2.5-2.1c0.6-0.8,0.9-1.5,0.9-2.1L602,332.6L602,332.6z"/>
</g>
</svg>
